Patient4_TMGait_0pt6_01_left_06_EMG.mot
version=1
nRows=13
nColumns=33
inDegrees=no
endheader
time	1LAddLong	2LGlutMax	3LGlutMed	4LIliopsoas	5LSemiMemb	6LBicFemLong	7LRecFem	8LVastMed	9LVastLat	10LGasMed	11LTibAnt	12lTibPost	13LPeroneusLong	14LSol	15LExtDigLong	16LFlexDigLong	17RAddLong	18RGlutMax	19RGlutMed	20RIliopsoas	21RSemiMemb	22RBicFemLong	23RRecFem	24RVastMed	25RVastLat	26RGasMed	27RTibAnt	28RTibPost	29RPeroneusLong	30RSol	31RExtDigLong	32RFlexDigLong
7.71	-0.031891	0.080109	0.11688	0.00473	-0.1944	0.44586	0.33218	0.017242	-0.6427	-0.046997	-0.051727	0.035248	0.02533	-0.20035	-0.6459	-0.057068	0.006104	0.06073	-0.23224	-0.065613	-0.062408	-0.11978	0.42938	0.074005	-0.031128	0.01358	-0.078735	-0.016174	-0.16754	-0.003052	-0.00412	-0.015411
7.711	0.023499	0.2536	0.067596	-0.011139	-0.1297	0.32181	0.26825	0.008392	-0.52277	-0.019989	0.032043	0.037231	-0.78598	-0.21729	-0.56366	-0.042419	-0.003052	0.016327	-0.21851	-0.10956	-0.082245	-0.11414	0.43579	0.04837	-0.025024	0.015869	-0.051422	-0.027008	0.024719	0.047455	-0.00351	-0.015564
7.712	0.032043	0.41306	0.055695	-0.005951	0.034027	0.14954	0.27344	0.009003	-0.42709	0.002594	0.004272	0.047455	-0.56686	-0.37109	-0.36652	-0.029449	0.001831	-0.009155	-0.16525	-0.095215	-0.088196	-0.097198	0.44128	0.10788	-0.025787	0.016327	-0.008392	-0.026703	0.36743	0.087585	-0.002136	-0.021057
7.713	0.021515	0.53009	0.034637	-0.007172	0.10315	-0.06897	0.31067	0.014801	-0.39352	0.011749	-0.10284	0.041199	0.20065	-0.39841	-0.067596	-0.029602	0.031738	-0.049591	-0.15335	-0.084076	-0.091858	-0.096893	0.50842	0.057983	-0.041046	0.010986	0.015869	-0.023956	0.33859	0.18036	-0.003815	-0.023956
7.714	0.013428	0.62637	-0.010834	-0.00061	0.077515	-0.46051	0.31113	0.017853	-0.33691	-0.009003	-0.052032	0.043335	0.29953	-0.22415	0.21362	-0.050049	0.040436	-0.089111	-0.18478	-0.042572	-0.1236	-0.13809	0.5394	0.016785	-0.031281	0.008087	0.041962	-0.020905	0.15732	0.15091	-0.005493	-0.021057
7.715	0.016327	0.72678	0.004578	-0.011139	0.011597	-0.46814	0.34653	0.021667	-0.31479	-0.010071	-0.009308	0.033722	0.16663	0.010681	0.29022	-0.051117	0.06012	-0.12802	-0.25162	0.063477	-0.099945	-0.13718	0.53146	-0.043793	-0.038605	0.007172	0.022583	-0.015411	0.32822	0.052032	-0.000458	-0.026703
7.716	0.020294	0.78125	0.016479	0.009308	-0.034027	-0.23071	0.37506	0.017395	-0.27435	0.039063	0.049133	0.034637	0.010986	-0.13886	0.12619	-0.054321	0.053864	-0.1268	-0.24719	0.13733	-0.09491	-0.14664	0.57327	-0.003052	-0.037384	0.005951	0.030212	-0.019073	-0.059662	-0.068817	0.000305	-0.016327
7.717	0.019836	0.78568	-0.11276	0.024261	-0.054474	-0.13626	0.35904	0.026855	-0.24277	0.057068	0.11826	0.027313	0.2327	-0.24445	0.13107	-0.041962	0.030823	-0.094299	-0.24658	0.15198	-0.12528	-0.12024	0.50812	-0.056152	-0.033722	0.005798	-0.081635	-0.021515	0.14252	-0.059052	0	-0.010834
7.718	0.026398	0.75165	-0.075684	0.022278	-0.04425	-0.35553	0.34912	0.027161	-0.24765	-0.016174	0.11307	0.029755	0.54657	-0.24155	0.16007	-0.034637	0.001373	-0.091705	-0.19455	0.14191	-0.097656	-0.15869	0.42496	-0.078125	-0.015259	-0.000305	-0.021667	-0.02121	0.5957	0.12451	-0.00061	-0.006409
7.719	0.035858	0.67856	-0.17227	0.008087	0.050201	-0.37933	0.35797	0.015564	-0.25238	-0.063324	0.011902	0.032806	0.36957	-0.20309	0.053253	-0.033417	-0.028687	-0.16129	-0.22858	0.11719	-0.020905	-0.2179	0.37918	-0.029907	-0.023041	0.000916	0.018005	-0.017853	0.45227	0.11795	-0.003204	-0.014648
7.72	0.040131	0.62607	-0.093842	0.015717	0.02121	-0.45334	0.37369	0.018311	-0.24628	-0.081635	-0.11322	0.025787	-0.62195	0.013428	0.088654	-0.038605	-0.082397	-0.086823	-0.32105	0.056458	-0.005951	-0.20889	0.40726	0.037231	0.003815	-0.00061	-0.031891	-0.024719	0.31357	0.038147	-0.005188	-0.012054
7.721	0.034332	0.62882	0.075836	0.01236	-0.019684	-0.33325	0.35431	0.024414	-0.23315	-0.071411	-0.10071	0.033875	-0.54031	0.030823	0.057068	-0.045929	-0.075684	-0.017548	-0.26871	-0.05127	-0.08194	-0.077515	0.47394	0.026855	-0.022125	0.004272	-0.057068	-0.025635	-0.3894	-0.025024	-0.001678	-0.009613
7.722	0.027313	0.58014	-0.019989	0.001984	-0.070496	-0.093384	0.33844	0.032349	-0.17807	0.009613	-0.050507	0.036163	-0.42694	-0.19806	-0.056915	-0.043488	-0.067444	-0.11765	-0.36575	-0.066528	-0.13077	-0.044403	0.57587	0.010986	-0.029297	0.001831	0.049286	-0.022125	-0.85068	-0.076904	0.000153	-0.009613
